<?xml version="1.0" encoding="UTF-8" standalone="no"?>
<!DOCTYPE svg PUBLIC "-//W3C//DTD SVG 1.1//EN" "http://www.w3.org/Graphics/SVG/1.1/DTD/svg11.dtd">
<svg version="1.1" xmlns="http://www.w3.org/2000/svg" xmlns:xlink="http://www.w3.org/1999/xlink" preserveAspectRatio="xMidYMid meet" viewBox="0 0 640 640" width="40" height="40"><defs><path d="M344.4 85.49C396.9 137.98 426.07 167.14 431.9 172.97C441.67 182.73 457.5 182.73 467.26 172.96C477.02 163.2 477.02 147.37 467.25 137.61C454.22 124.58 349.95 20.34 336.92 7.31C336.91 7.3 336.9 7.3 336.9 7.29C327.13 -2.45 311.25 -2.44 301.5 7.38C301.5 7.39 301.49 7.39 301.48 7.4C288.51 20.5 184.78 125.26 171.81 138.36C162.1 148.17 162.18 164 171.99 173.72C181.8 183.43 197.63 183.35 207.34 173.54C213.15 167.68 242.17 138.37 294.4 85.62C295.21 403.28 295.66 579.77 295.75 615.06C295.79 628.87 307.01 640.03 320.82 640C334.63 639.96 345.79 628.74 345.75 614.94C345.57 544.34 345.12 367.86 344.4 85.49Z" id="a1UiBtLagq"></path></defs><g><g><g><use xlink:href="#a1UiBtLagq" opacity="1" fill="#3f51b5" fill-opacity="1"></use><g><use xlink:href="#a1UiBtLagq" opacity="1" fill-opacity="0" stroke="#000000" stroke-width="1" stroke-opacity="0"></use></g></g></g></g></svg>